<svg width="164" height="216" viewBox="0 0 164 216" fill="none" xmlns="http://www.w3.org/2000/svg">
<path d="M128.781 27.451L128.78 27.4502C119.648 21.717 108.773 16.4224 99.1318 12.1912L128.781 27.451ZM128.781 27.451C147.191 39.0015 155.748 59.4559 157.499 81.4551M128.781 27.451L157.499 81.4551M157.499 81.4551C148.884 54.1024 127.129 32.8691 99.8259 25.8629L92.3345 23.9405V31.6746V38.1838V166.585V172.904C90.843 187.905 77.2639 202.926 56.8402 207.653M157.499 81.4551L99.1314 12.191C94.7182 10.2572 90.6069 8.55493 87.0869 7.15244L87.0852 7.15179C85.6446 6.5773 84.4043 6.34421 83.3944 6.28271V23.4718H83.4045V29.4718V138.118V147.828L74.7206 143.484C65.6509 138.948 53.9261 137.391 41.7744 140.207L41.7723 140.208C17.1029 145.917 2.80999 166.228 6.76173 183.818L6.76189 183.818C10.6989 201.351 32.1738 213.36 56.8402 207.653M56.8402 207.653L58.193 213.498L56.8402 207.653Z" stroke="url(#paint0_linear)" stroke-width="12" stroke-miterlimit="10"/>
<defs>
<linearGradient id="paint0_linear" x1="61.9069" y1="-20.6981" x2="61.9069" y2="194.1" gradientUnits="userSpaceOnUse">
<stop stop-color="#2652DB"/>
<stop offset="1" stop-color="#07090F" stop-opacity="0.85"/>
</linearGradient>
</defs>
</svg>
